PathFileType	4	(X/Y/Z)	DARI_DATA/Captury_Subj8_bilateral_squat02.trc
DataRate	CameraRate	NumFrames	NumMarkers	Units	OrigDataRate	OrigDataStartFrame	OrigNumFrames
60	60	4	47	mm	59.99879837036133	150	239
Frame#	Time		LeftUpLeg_		RightUpLeg_		LeftLeg_		RightLeg_		LeftFoot_		RightFoot_		LeftToeBase_		RightToeBase_		Knee_Lateral_r		Knee_Lateral_l		Ankle_Lateral_r		Ankle_Lateral_l		LeftArm_		LeftForeArm_		LeftHand_		LeftHandEE		RightArm_		RightForeArm_		RightHand_		RightHandEE		Spine_		Spine1_		Spine2_		Spine3_		Spine4_		Spine5_		Spine_x		Spine_y		Spine_z		RASI		LASI		RIPS		LIPS		RTHI		LTHI		RTIB		LTIB		RTOE		LTOE		RHEE		LHEE		RHipAngles		LHipAngles		RKneeAngles		LKneeAngles		RAnkleAngles		LAnkleAngles
			X1	Y1	Z1	X2	Y2	Z2	X3	Y3	Z3	X4	Y4	Z4	X5	Y5	Z5	X6	Y6	Z6	X7	Y7	Z7	X8	Y8	Z8	X9	Y9	Z9	X10	Y10	Z10	X11	Y11	Z11	X12	Y12	Z12	X13	Y13	Z13	X14	Y14	Z14	X15	Y15	Z15	X16	Y16	Z16	X17	Y17	Z17	X18	Y18	Z18	X19	Y19	Z19	X20	Y20	Z20	X21	Y21	Z21	X22	Y22	Z22	X23	Y23	Z23	X24	Y24	Z24	X25	Y25	Z25	X26	Y26	Z26	X27	Y27	Z27	X28	Y28	Z28	X29	Y29	Z29	X30	Y30	Z30	X31	Y31	Z31	X32	Y32	Z32	X33	Y33	Z33	X34	Y34	Z34	X35	Y35	Z35	X36	Y36	Z36	X37	Y37	Z37	X38	Y38	Z38	X39	Y39	Z39	X40	Y40	Z40	X41	Y41	Z41	X42	Y42	Z42	X43	Y43	Z43	X44	Y44	Z44	X45	Y45	Z45	X46	Y46	Z46	X47	Y47	Z47

150	2.48333	-86.45065	771.52173	197.17519	90.24082	759.61371	191.83685	-132.67194	462.29831	-92.10197	144.50040	462.06296	-108.09018	-126.88744	106.27786	77.40584	138.62090	112.37442	74.11925	-161.73257	34.81126	-32.92535	173.97697	28.39130	-26.83324	193.03000	461.40466	-102.19614	-181.25247	461.10678	-86.73475	184.91962	117.99303	98.91362	-173.38840	109.23800	102.28153	-147.27803	1220.81067	38.68411	-167.96288	1224.92395	-241.16223	-157.28549	1244.73352	-481.23633	-145.23511	1242.59558	-568.38025	142.84782	1224.34253	34.75011	177.82359	1228.62964	-243.66881	172.00232	1250.14734	-483.76282	176.35332	1252.62158	-571.61951	9.06929	862.59119	215.53580	11.71417	950.43713	182.58769	11.12380	1015.44135	176.06795	5.98348	1102.01172	177.85197	-3.89609	1215.49780	113.36489	-27904771620864.00000	0.00000	-27904805175296.00000	58.77992	859.24097	214.03391	12.44221	912.31781	216.25166	10.51947	861.77563	265.35403	152.69698	824.66193	91.03681	-145.56679	844.76318	100.04817	47.68415	829.58569	243.79572	-31.85286	834.94604	246.19873	184.44348	617.00372	61.82574	-176.95078	622.76855	71.48961	182.73190	298.47241	-34.93636	-167.30911	240.87990	-4.96754	189.38663	11.63685	-100.04652	-179.47925	9.59696	-103.12258	138.85020	64.28230	143.44565	-128.04236	50.46722	140.67426	-44.46675	8.30073	3.85916	-41.47800	-0.78051	6.78466	-67.28815	-0.02233	0.49506	-63.05317	0.08273	0.52993	-4.29933	5.63273	12.32091	-8.94095	5.63328	12.37233
151	2.50000	-86.18524	783.66394	193.50252	90.53418	771.96735	188.64616	-131.17413	465.88531	-86.55025	142.97557	465.23145	-102.21431	-127.04739	107.23608	77.37247	138.47514	112.71262	74.49788	-161.63988	35.08205	-32.59016	173.70660	28.76602	-26.52854	191.51518	464.56128	-96.40480	-179.77345	464.82370	-81.32803	184.81833	118.37501	99.19901	-173.61339	110.40192	102.10065	-146.76376	1235.60583	40.88955	-168.11377	1239.92883	-238.90361	-157.59866	1259.79822	-478.97992	-144.83459	1257.05835	-566.00531	143.30109	1239.62122	38.28976	178.88280	1242.90088	-240.06598	172.67667	1263.74121	-480.21002	178.23314	1264.62268	-568.02911	9.18423	874.69086	212.83040	11.85228	962.87915	180.81177	11.20374	1027.95837	175.09518	5.91818	1114.48633	178.09854	-3.86891	1228.95215	115.35251	-27904771620864.00000	0.00000	-27904805175296.00000	58.90273	871.40015	211.46410	12.50516	924.41425	213.91785	10.47538	873.51514	262.64581	153.24841	837.80634	88.52203	-145.06256	857.55066	96.71982	47.74116	841.51886	240.97414	-31.80843	846.78400	243.16022	183.89517	625.10370	62.83104	-176.14169	631.15466	71.99776	181.82922	300.62903	-31.70590	-166.79901	243.25502	-2.97465	188.97350	12.10170	-99.79229	-179.20335	9.50172	-102.70097	138.88234	64.61684	143.82092	-128.40089	51.83303	140.99419	-42.27815	7.94072	3.98009	-39.34805	-0.82971	6.60619	-64.61961	0.05501	0.50577	-60.42843	0.03270	0.53021	-3.39525	5.63415	12.31483	-7.66206	5.63352	12.34789
152	2.51667	-86.00459	795.74255	189.68275	90.74100	784.33966	185.08676	-129.58006	469.37842	-80.54753	141.38361	468.37225	-96.04797	-127.09966	108.07355	77.47011	138.52365	113.03452	74.96043	-161.46005	35.30586	-32.16043	173.54916	29.11327	-26.15862	189.94241	467.76559	-90.39397	-178.19553	468.40512	-75.46002	184.93362	118.75558	99.52227	-173.72963	111.42961	102.05225	-146.11098	1250.15601	42.99931	-168.91710	1254.56238	-236.67764	-158.21361	1274.77954	-476.71661	-144.63261	1271.10498	-563.58380	143.87990	1254.38733	42.01529	179.90266	1256.94678	-236.29132	173.94557	1276.98291	-476.51013	179.48625	1275.90308	-564.32806	9.19595	886.69928	210.14128	11.83150	975.26941	179.19185	11.12094	1040.41724	174.32834	5.70092	1126.88611	178.54652	-3.90204	1242.27820	117.49139	-27904771620864.00000	0.00000	-27904805175296.00000	58.92180	883.49115	208.84824	12.44494	936.41351	211.74219	10.38253	885.01794	259.94479	153.57631	851.28162	85.77318	-144.77882	870.53027	93.53142	47.73919	853.29541	238.02841	-31.82218	858.42841	240.09727	183.28931	633.31281	63.67693	-175.32663	639.40833	72.65359	180.96849	302.78098	-28.31638	-166.18361	245.53363	-0.72302	188.60051	12.55157	-99.49021	-178.84264	9.42721	-102.20681	139.18639	64.94798	144.28792	-128.67290	53.04572	141.41162	-39.83759	7.61379	4.04461	-36.98912	-0.93066	6.39854	-61.85103	0.05329	0.51449	-57.69744	0.02937	0.53470	-2.45422	5.63491	12.30813	-6.37527	5.63414	12.34195
153	2.53333	-85.88615	807.12354	186.07460	90.90267	796.14447	182.15981	-128.23279	472.77139	-74.40990	139.87056	471.66513	-89.41353	-126.92422	108.93320	77.69859	138.44293	113.39151	75.37390	-161.17287	35.48834	-31.51450	173.30429	29.52847	-25.85011	188.44269	471.08673	-83.87223	-176.85555	471.84039	-69.38462	184.90392	119.14653	99.83112	-173.58548	112.45665	102.19780	-145.48480	1264.62000	45.14534	-169.87921	1268.85327	-234.40022	-159.17326	1289.26196	-474.42285	-144.50914	1285.26941	-561.09967	144.41727	1269.13220	45.84525	181.11661	1270.45886	-232.38156	174.92926	1289.45312	-472.67920	180.49159	1287.06165	-560.46985	9.01888	898.23035	207.22638	11.63908	987.07587	177.07510	10.88846	1052.27734	173.00026	5.41892	1138.66943	178.52693	-3.82397	1255.12756	119.47311	-27904771620864.00000	0.00000	-27904805175296.00000	58.75690	895.14148	206.12498	12.14582	947.94629	209.00775	10.00701	896.38373	257.02838	153.98526	863.56604	83.32861	-144.44284	882.09924	89.93696	47.52601	864.82172	235.15764	-32.05482	869.76392	236.91986	182.68539	641.24005	65.13335	-174.64279	647.17798	73.58315	180.09662	305.03790	-24.66606	-165.54457	247.75977	1.72066	188.19109	13.07038	-99.23857	-178.46271	9.24594	-101.44839	139.29474	65.28302	144.68408	-128.61093	54.31283	141.98563	-37.86566	7.17785	4.06993	-35.09359	-0.88639	6.37256	-59.09560	0.07603	0.52017	-55.04295	0.04330	0.53983	-1.46356	5.63550	12.29816	-5.07208	5.63484	12.35474
